<mxfile host="app.diagrams.net" modified="2021-06-07T14:11:34.743Z" agent="5.0 (Windows)" etag="3OgvZE1IHWxqVVXo2uFk" version="14.7.6" type="github">
  <diagram id="slvCwaCXh48iNPm0nYj_" name="Page-1">
    <mxGraphModel dx="1038" dy="536" grid="1" gridSize="10" guides="1" tooltips="1" connect="1" arrows="1" fold="1" page="1" pageScale="1" pageWidth="827" pageHeight="1169" math="0" shadow="0">
      <root>
        <mxCell id="0" />
        <mxCell id="1" parent="0" />
        <mxCell id="1rahyuPqR6ZZ8UXQYfPs-1" value="&lt;b&gt;Külső adathalmaz (Csv fájl)&lt;/b&gt;" style="shape=datastore;whiteSpace=wrap;html=1;" vertex="1" parent="1">
          <mxGeometry x="90" y="180" width="80" height="80" as="geometry" />
        </mxCell>
        <mxCell id="1rahyuPqR6ZZ8UXQYfPs-3" value="" style="rounded=0;whiteSpace=wrap;html=1;" vertex="1" parent="1">
          <mxGeometry x="220" y="110" width="390" height="200" as="geometry" />
        </mxCell>
        <mxCell id="1rahyuPqR6ZZ8UXQYfPs-4" value="&lt;b&gt;Felhasználó&lt;/b&gt;" style="shape=umlActor;verticalLabelPosition=bottom;verticalAlign=top;html=1;outlineConnect=0;" vertex="1" parent="1">
          <mxGeometry x="660" y="180" width="30" height="60" as="geometry" />
        </mxCell>
        <mxCell id="1rahyuPqR6ZZ8UXQYfPs-7" value="&lt;b&gt;Adatkezelő réteg &lt;/b&gt;(data_preparation.py)&lt;b&gt;&lt;br&gt;&lt;/b&gt;" style="rounded=0;whiteSpace=wrap;html=1;" vertex="1" parent="1">
          <mxGeometry x="230" y="130" width="130" height="40" as="geometry" />
        </mxCell>
        <mxCell id="1rahyuPqR6ZZ8UXQYfPs-8" value="&lt;div&gt;&lt;b&gt;Modell réteg&lt;/b&gt;&lt;/div&gt;&lt;div&gt;(model.py)&lt;br&gt;&lt;b&gt;&lt;/b&gt;&lt;/div&gt;" style="rounded=0;whiteSpace=wrap;html=1;" vertex="1" parent="1">
          <mxGeometry x="355" y="180" width="130" height="40" as="geometry" />
        </mxCell>
        <mxCell id="1rahyuPqR6ZZ8UXQYfPs-9" value="&lt;div&gt;&lt;b&gt;Nézet réteg &lt;br&gt;&lt;/b&gt;&lt;/div&gt;&lt;div&gt;(view.py)&lt;br&gt;&lt;b&gt;&lt;/b&gt;&lt;/div&gt;" style="rounded=0;whiteSpace=wrap;html=1;" vertex="1" parent="1">
          <mxGeometry x="460" y="130" width="130" height="40" as="geometry" />
        </mxCell>
        <mxCell id="1rahyuPqR6ZZ8UXQYfPs-10" value="&lt;div&gt;&lt;b&gt;Vezérlő réteg &lt;/b&gt;&lt;br&gt;&lt;/div&gt;&lt;div&gt;(controller.py)&lt;/div&gt;&lt;b&gt;&lt;/b&gt;" style="rounded=0;whiteSpace=wrap;html=1;" vertex="1" parent="1">
          <mxGeometry x="360" y="240" width="120" height="60" as="geometry" />
        </mxCell>
        <mxCell id="1rahyuPqR6ZZ8UXQYfPs-11" value="" style="endArrow=classic;html=1;exitX=0;exitY=0.3333333333333333;exitDx=0;exitDy=0;exitPerimeter=0;entryX=1;entryY=0.5;entryDx=0;entryDy=0;" edge="1" parent="1" source="1rahyuPqR6ZZ8UXQYfPs-4" target="1rahyuPqR6ZZ8UXQYfPs-9">
          <mxGeometry width="50" height="50" relative="1" as="geometry">
            <mxPoint x="390" y="300" as="sourcePoint" />
            <mxPoint x="440" y="250" as="targetPoint" />
          </mxGeometry>
        </mxCell>
        <mxCell id="1rahyuPqR6ZZ8UXQYfPs-13" value="" style="endArrow=classic;html=1;exitX=0.85;exitY=0.05;exitDx=0;exitDy=0;exitPerimeter=0;entryX=0;entryY=0.5;entryDx=0;entryDy=0;" edge="1" parent="1" source="1rahyuPqR6ZZ8UXQYfPs-1" target="1rahyuPqR6ZZ8UXQYfPs-7">
          <mxGeometry width="50" height="50" relative="1" as="geometry">
            <mxPoint x="390" y="300" as="sourcePoint" />
            <mxPoint x="440" y="250" as="targetPoint" />
          </mxGeometry>
        </mxCell>
        <mxCell id="1rahyuPqR6ZZ8UXQYfPs-14" value="" style="endArrow=classic;html=1;entryX=0.5;entryY=0;entryDx=0;entryDy=0;" edge="1" parent="1" target="1rahyuPqR6ZZ8UXQYfPs-10">
          <mxGeometry width="50" height="50" relative="1" as="geometry">
            <mxPoint x="420" y="220" as="sourcePoint" />
            <mxPoint x="440" y="250" as="targetPoint" />
          </mxGeometry>
        </mxCell>
        <mxCell id="1rahyuPqR6ZZ8UXQYfPs-15" value="" style="endArrow=classic;html=1;exitX=0.5;exitY=1;exitDx=0;exitDy=0;entryX=0;entryY=0;entryDx=0;entryDy=0;" edge="1" parent="1" source="1rahyuPqR6ZZ8UXQYfPs-7" target="1rahyuPqR6ZZ8UXQYfPs-10">
          <mxGeometry width="50" height="50" relative="1" as="geometry">
            <mxPoint x="390" y="300" as="sourcePoint" />
            <mxPoint x="440" y="250" as="targetPoint" />
          </mxGeometry>
        </mxCell>
        <mxCell id="1rahyuPqR6ZZ8UXQYfPs-16" value="" style="endArrow=classic;html=1;exitX=0.5;exitY=1;exitDx=0;exitDy=0;entryX=1;entryY=0;entryDx=0;entryDy=0;" edge="1" parent="1" source="1rahyuPqR6ZZ8UXQYfPs-9" target="1rahyuPqR6ZZ8UXQYfPs-10">
          <mxGeometry width="50" height="50" relative="1" as="geometry">
            <mxPoint x="390" y="300" as="sourcePoint" />
            <mxPoint x="440" y="250" as="targetPoint" />
          </mxGeometry>
        </mxCell>
        <mxCell id="1rahyuPqR6ZZ8UXQYfPs-18" value="" style="endArrow=classic;html=1;exitX=1;exitY=1;exitDx=0;exitDy=0;" edge="1" parent="1" source="1rahyuPqR6ZZ8UXQYfPs-9">
          <mxGeometry width="50" height="50" relative="1" as="geometry">
            <mxPoint x="390" y="300" as="sourcePoint" />
            <mxPoint x="650" y="220" as="targetPoint" />
          </mxGeometry>
        </mxCell>
        <mxCell id="1rahyuPqR6ZZ8UXQYfPs-19" value="" style="endArrow=classic;html=1;exitX=1;exitY=0.5;exitDx=0;exitDy=0;entryX=0.75;entryY=1;entryDx=0;entryDy=0;" edge="1" parent="1" source="1rahyuPqR6ZZ8UXQYfPs-10" target="1rahyuPqR6ZZ8UXQYfPs-9">
          <mxGeometry width="50" height="50" relative="1" as="geometry">
            <mxPoint x="390" y="300" as="sourcePoint" />
            <mxPoint x="440" y="250" as="targetPoint" />
          </mxGeometry>
        </mxCell>
      </root>
    </mxGraphModel>
  </diagram>
</mxfile>
